PathFileType	4	(X/Y/Z)	c:/Users/goper/Files/vsCode/490R/osim_files/C05/C05_Static.trc
DataRate	CameraRate	NumFrames	NumMarkers	Units                	OrigDataRate	OrigDataStartFrame	OrigNumFrames
250.00	250.00	9	36	mm	250.0	691	1840
                Frame#	Time	LPSIS			LASIS			LTH1			LTH2			LTH3			LTH4			LLFE			LMFE			LSH1			LSH2			LSH3			LSH4			LLMAL			LMMAL			LCAL			LMTP5			LTOE			LMTP1			RPSIS			RASIS			RTH1			RTH2			RTH3			RTH4			RLFE			RMFE			RSH1			RSH2			RSH3			RSH4			RLMAL			RMMAL			RCAL			RMTP1			RTOE			RMTP5		
		X1	Y1	Z1	X2	Y2	Z2	X3	Y3	Z3	X4	Y4	Z4	X5	Y5	Z5	X6	Y6	Z6	X7	Y7	Z7	X8	Y8	Z8	X9	Y9	Z9	X10	Y10	Z10	X11	Y11	Z11	X12	Y12	Z12	X13	Y13	Z13	X14	Y14	Z14	X15	Y15	Z15	X16	Y16	Z16	X17	Y17	Z17	X18	Y18	Z18	X19	Y19	Z19	X20	Y20	Z20	X21	Y21	Z21	X22	Y22	Z22	X23	Y23	Z23	X24	Y24	Z24	X25	Y25	Z25	X26	Y26	Z26	X27	Y27	Z27	X28	Y28	Z28	X29	Y29	Z29	X30	Y30	Z30	X31	Y31	Z31	X32	Y32	Z32	X33	Y33	Z33	X34	Y34	Z34	X35	Y35	Z35	X36	Y36	Z36

691	2.76000	-423.02567	1063.43396	414.21637	-230.21745	1023.26843	349.30484	-371.50833	714.55157	281.17142	-367.20258	651.73383	283.92484	-294.96313	713.14868	277.01062	-300.48404	651.91058	280.80789	-333.97565	542.95355	290.81885	-335.62341	522.25854	408.47726	-436.44003	370.48669	277.61533	-430.79068	327.40503	276.97653	-374.78525	370.81485	258.64911	-380.31949	327.68909	262.56912	-396.29568	97.27114	287.59445	-359.95221	108.31628	367.57843	-447.76038	68.40108	343.33994	-262.14148	40.91336	237.92068	-216.89227	65.15923	292.75412	-224.25035	45.46629	341.55167	-415.14691	1067.98181	521.94269	-222.48996	1025.81152	580.45282	-360.75818	717.07861	658.84515	-361.66162	654.05359	655.49487	-286.11697	710.20526	664.14362	-297.39215	648.08466	660.76105	-315.15414	535.40576	645.47058	-341.79050	507.17877	541.59735	-400.40588	386.17819	681.15039	-396.78250	338.31046	679.42706	-340.47269	382.39340	673.95837	-345.53336	335.95718	672.79083	-377.10767	96.39279	649.10071	-364.56985	109.46668	564.22748	-445.42093	68.44563	608.18823	-232.82080	40.81653	557.84906	-207.11400	63.89084	603.37421	-249.78445	34.03111	672.69055
692	2.76400	-422.98706	1063.41797	414.20398	-230.19682	1023.23029	349.30063	-371.52979	714.52380	281.18872	-367.21793	651.71399	283.94376	-294.94089	713.14368	277.00186	-300.47046	651.91156	280.81393	-333.97055	542.92133	290.80811	-335.62134	522.23004	408.48477	-436.42838	370.48859	277.63501	-430.74994	327.44507	276.96017	-374.75403	370.78961	258.64548	-380.28363	327.67310	262.57977	-396.27524	97.26588	287.58282	-359.92908	108.29773	367.56567	-447.75760	68.41829	343.33304	-262.09714	40.90380	237.91466	-216.86267	65.13350	292.74860	-224.07242	45.45608	341.46567	-415.13290	1067.97485	521.92542	-222.44543	1025.79944	580.43323	-360.70685	717.05115	658.82886	-361.60355	654.01447	655.47302	-286.07333	710.17535	664.11877	-297.34344	648.04163	660.74371	-315.14017	535.36438	645.43896	-341.78662	507.17981	541.59949	-400.35468	386.15393	681.14661	-396.72897	338.27817	679.41626	-340.42807	382.36047	673.95148	-345.49664	335.94434	672.79712	-377.05051	96.36237	649.10535	-364.55255	109.44688	564.21619	-445.41312	68.43531	608.18835	-232.80005	40.80592	557.84418	-207.10263	63.87536	603.36987	-249.74940	34.01857	672.69153
693	2.76800	-422.97949	1063.42505	414.22641	-230.16769	1023.24261	349.29282	-371.53244	714.54401	281.20242	-367.25140	651.73145	283.96896	-294.96475	713.14935	277.01611	-300.46146	651.88831	280.80078	-333.96494	542.92700	290.80356	-335.61392	522.22327	408.48001	-436.43524	370.49957	277.63724	-430.80167	327.43387	276.97696	-374.75977	370.79553	258.65213	-380.32315	327.66730	262.57532	-396.28049	97.26223	287.59726	-359.91870	108.28061	367.58749	-447.72556	68.38726	343.34781	-262.08786	40.90814	237.91026	-216.85814	65.13830	292.75452	-224.14687	45.52641	341.55121	-415.08493	1067.97961	521.93518	-222.44376	1025.79602	580.43085	-360.67267	717.05359	658.83325	-361.58780	654.03308	655.52570	-286.03970	710.16583	664.13318	-297.33600	648.03705	660.76379	-315.11990	535.37354	645.44733	-341.78159	507.18179	541.60095	-400.27432	386.14883	681.15320	-396.68600	338.27185	679.42816	-340.41507	382.36905	673.95093	-345.50879	335.91434	672.78961	-377.02994	96.35535	649.11432	-364.55508	109.45267	564.22766	-445.40921	68.46899	608.20050	-232.79964	40.82479	557.85547	-207.09714	63.88733	603.38525	-249.73868	34.01862	672.69672
694	2.77200	-422.96463	1063.42297	414.23157	-230.15254	1023.26257	349.29971	-371.52853	714.56781	281.21851	-367.23151	651.74097	283.96344	-294.92859	713.16589	277.00082	-300.44482	651.91650	280.81567	-333.93347	542.94550	290.81949	-335.56586	522.18872	408.48499	-436.43225	370.50934	277.63907	-432.01483	326.46915	278.03232	-374.72052	370.80899	258.65762	-380.29050	327.68954	262.58020	-396.26813	97.27192	287.60522	-359.90121	108.27941	367.57932	-447.69354	68.39885	343.34470	-262.08792	40.91056	237.92215	-216.85199	65.16021	292.76144	-224.14929	45.52693	341.53574	-415.07208	1068.00232	521.94641	-222.42487	1025.80212	580.42316	-360.65146	717.04822	658.83209	-361.56070	654.02087	655.50024	-286.03940	710.12592	664.13086	-297.29663	648.02856	660.73657	-315.09436	535.37970	645.44061	-341.77521	507.18448	541.60168	-400.28842	386.14987	681.14203	-396.66855	338.27637	679.42841	-340.41641	382.36514	673.94611	-345.48782	335.92523	672.78467	-377.02386	96.35553	649.12042	-364.54019	109.46719	564.23322	-445.40063	68.49034	608.22949	-232.74553	40.84986	557.85492	-207.08737	63.86835	603.40009	-249.82686	33.84625	672.56836
695	2.77600	-422.88989	1063.41345	414.26492	-230.14586	1023.27295	349.30997	-371.52612	714.58057	281.21548	-367.21616	651.75574	283.96942	-294.88644	713.19305	277.03394	-300.39304	651.94495	280.82181	-333.92194	542.95361	290.82413	-335.60684	522.16553	408.49896	-436.42444	370.52679	277.67987	-430.71948	327.55499	276.97736	-374.72028	370.83276	258.66003	-380.27716	327.70312	262.57587	-396.24539	97.27583	287.62576	-359.90283	108.28936	367.58835	-447.65836	68.42456	343.35605	-262.06152	40.95038	237.92517	-216.86008	65.16154	292.77185	-224.16154	45.58912	341.53400	-415.07498	1068.03418	521.95111	-222.41606	1025.81482	580.43835	-360.65652	717.08392	658.83649	-361.56363	654.04327	655.50397	-286.05930	710.12372	664.13196	-297.31195	648.03601	660.72736	-315.10602	535.39240	645.45831	-341.76758	507.18808	541.60175	-400.31268	386.18124	681.15387	-396.68787	338.29361	679.43054	-340.42932	382.37891	673.95996	-345.48538	335.92822	672.79858	-377.00079	96.35863	649.14081	-364.51773	109.47896	564.23932	-445.41089	68.50696	608.23749	-232.74867	40.86216	557.85870	-207.09671	63.87275	603.41833	-249.82681	33.84856	672.58197
696	2.78000	-422.85153	1063.37720	414.25745	-230.12520	1023.27582	349.30490	-371.49545	714.56482	281.22461	-367.21417	651.78070	283.98871	-294.89877	713.21100	277.04153	-300.41037	651.95557	280.83200	-333.92941	542.93536	290.82962	-335.60501	522.13519	408.49054	-436.41080	370.52786	277.69052	-431.92181	326.69638	278.05472	-374.70712	370.84161	258.66827	-380.26706	327.71307	262.58957	-396.24811	97.26772	287.64243	-359.88989	108.29077	367.60004	-447.73050	68.45304	343.36230	-262.06351	40.97007	237.91478	-216.85780	65.16021	292.78125	-224.18521	45.55821	341.52234	-415.07663	1068.04285	521.92633	-222.39575	1025.80957	580.44818	-360.65790	717.08887	658.83618	-361.57495	654.03979	655.49402	-286.08157	710.10321	664.13055	-297.31274	648.03595	660.73407	-315.09448	535.38477	645.47504	-341.75864	507.19254	541.60095	-400.30640	386.18323	681.15393	-396.68689	338.31958	679.45203	-340.41281	382.38956	673.95361	-345.49521	335.92636	672.81525	-376.99454	96.36275	649.14172	-364.50150	109.48652	564.24561	-445.39194	68.52857	608.24652	-232.71765	40.87717	557.88538	-207.08904	63.86952	603.42297	-249.82272	33.85418	672.58545
697	2.78400	-422.85730	1063.38452	414.27356	-230.11090	1023.28345	349.32178	-371.54501	714.60846	281.27026	-367.22409	651.78510	283.99963	-294.90549	713.22595	277.02567	-300.38690	651.97144	280.82550	-333.91409	542.97998	290.82251	-335.61996	522.13879	408.47501	-436.40329	370.52820	277.70416	-430.70795	327.57910	277.03021	-374.71146	370.85660	258.67291	-380.27747	327.72229	262.59341	-396.23749	97.26340	287.65881	-359.89133	108.29613	367.61514	-447.70996	68.43089	343.36334	-262.06860	40.97467	237.92487	-216.86406	65.18507	292.80032	-224.14774	45.64665	341.52701	-415.03839	1068.03735	521.94312	-222.37158	1025.83142	580.43939	-360.67908	717.12292	658.83685	-361.59250	654.08429	655.52008	-286.08313	710.10132	664.14111	-297.30185	648.03583	660.74017	-315.07288	535.39215	645.45721	-341.74841	507.19791	541.59924	-400.30847	386.19684	681.15643	-396.68839	338.33591	679.44751	-340.37033	382.41275	673.95410	-345.52472	335.93851	672.81842	-377.00833	96.36354	649.13513	-364.50095	109.50752	564.24036	-445.38092	68.54501	608.25769	-232.70488	40.89286	557.87244	-207.08154	63.88046	603.43939	-249.83150	33.87244	672.60107
698	2.78800	-422.84848	1063.39832	414.25522	-230.09631	1023.29248	349.31436	-371.48569	714.61249	281.25327	-367.22736	651.79041	284.00916	-294.89127	713.22504	277.05157	-300.38669	651.98004	280.82211	-333.91513	542.97461	290.81671	-335.62265	522.13898	408.48730	-436.39255	370.53369	277.69458	-430.77002	327.53238	277.07755	-374.67947	370.87039	258.67136	-380.25266	327.73550	262.59409	-396.22900	97.24516	287.66812	-359.87048	108.31130	367.61002	-447.71332	68.45497	343.36331	-262.03342	40.98690	237.89955	-216.83627	65.20058	292.78973	-223.94330	45.67141	341.39441	-415.02625	1068.05896	521.93433	-222.36455	1025.83167	580.44598	-360.68658	717.12451	658.82062	-361.57327	654.09222	655.48694	-286.05844	710.12299	664.10950	-297.29523	648.05182	660.73413	-315.04880	535.40289	645.45294	-341.73672	507.20413	541.59656	-400.28717	386.21054	681.13007	-396.68088	338.34988	679.42261	-340.35834	382.43289	673.95294	-345.48077	335.95209	672.81561	-376.97522	96.37310	649.12946	-364.48047	109.52108	564.24500	-445.39841	68.57309	608.24811	-232.69002	40.91354	557.86920	-207.07965	63.87475	603.43890	-249.79427	33.87043	672.58923
699	2.79200	-422.86288	1063.39478	414.24197	-230.09015	1023.27332	349.29077	-371.50488	714.60394	281.25000	-367.23508	651.77850	284.01831	-294.88770	713.20520	277.03787	-300.39615	651.94794	280.81854	-333.92099	542.94641	290.83224	-335.61368	522.13177	408.47131	-436.39236	370.51639	277.68585	-430.69971	327.56250	277.04001	-374.69983	370.85269	258.65820	-380.23026	327.72797	262.59271	-396.22363	97.23969	287.63760	-359.84869	108.31094	367.59247	-447.70465	68.44215	343.34119	-262.04831	40.96009	237.89732	-216.84476	65.16781	292.77161	-224.07050	45.69429	341.52298	-415.06042	1068.07544	521.90900	-222.33739	1025.82922	580.43286	-360.69568	717.12262	658.80786	-361.58438	654.09949	655.48199	-286.08197	710.10645	664.10040	-297.29013	648.03693	660.71277	-315.05997	535.41016	645.45215	-341.72375	507.21140	541.59277	-400.30911	386.23190	681.13806	-396.67206	338.35751	679.42468	-340.34003	382.44144	673.96570	-345.43491	335.96182	672.81122	-376.96890	96.35667	649.11676	-364.48755	109.50522	564.23566	-445.38068	68.55160	608.21698	-232.69521	40.89080	557.85699	-207.07462	63.85875	603.42841	-249.69249	34.07900	672.71259
